# xmcd
#
# Track frame offsets: 
#        150
#        19657
#        42832
#        61732
#        81325
#        98875
#        132394
#        147947
#        176396
#        204858
#        249989
#
# Disc length: 3572 seconds
#
# Revision: 0
# Processed by: cddbd v1.5.2PL0 Copyright (c) Steve Scherf et al.
# Submitted via: ExactAudioCopy v1.3
#
DISCID=8a0df20b
DTITLE=Threat Signal - Disconnect
DYEAR=2017
DGENRE=Melodic Metalcore
TTITLE0=Elimination Process
TTITLE1=Nostalgia
TTITLE2=Walking Alone
TTITLE3=Exit The Matrix
TTITLE4=Falling Apart
TTITLE5=Aura
TTITLE6=Betrayal
TTITLE7=To Thine Own Self Be True
TTITLE8=Dimensions
TTITLE9=Terminal Madness
TTITLE10=Eyes Sewn Shut
EXTD=
EXTT0=
EXTT1=
EXTT2=
EXTT3=
EXTT4=
EXTT5=
EXTT6=
EXTT7=
EXTT8=
EXTT9=
EXTT10=
PLAYORDER=
